# xmcd
# 
# Track frame offsets:
#     150
#     16797
#     42820
#     63372
#     83227
#     101360
#     121177
#     139822
#     164685
#     185145
#     204080
#     220337
#     241465
#     264432
#     280995
# 
# Disc length: 4099
# 
# Revision: 10
# Processed by: cddbd v1.5.2PL0 Copyright (c) Steve Scherf et al.
# Submitted via: BonkEnc v1.0
# 
DISCID=d210010f
DTITLE=Yehuda Poliker - Live at Caesaria [Disc 1]
DYEAR=1996
DGENRE=Israeli
TTITLE0=לעינך הכחולות
TTITLE1=הילד שבך
TTITLE2=פחות אבל כואב
TTITLE3=הצל ואני
TTITLE4=כשתגדל
TTITLE5=רדיו רמאללה
TTITLE6=והילדים באים
TTITLE7=לא יודע
TTITLE8=דברים שרציתי לומר
TTITLE9=סיפור זמנים עברו
TTITLE10=אלקו
TTITLE11=ירקדו הבחורים and שותה הכפר
TTITLE12=משב רוח
TTITLE13=בוקר יום ראשון
TTITLE14=חלון לים התיכון
EXTD=YEAR: 1996
EXTT0=
EXTT1=
EXTT2=
EXTT3=
EXTT4=
EXTT5=
EXTT6=
EXTT7=
EXTT8=
EXTT9=
EXTT10=
EXTT11=
EXTT12=
EXTT13=
EXTT14=
PLAYORDER=
